<svg width="96" height="96" viewBox="0 0 96 96" fill="none" xmlns="http://www.w3.org/2000/svg" role="img" aria-label="Ева — AI асистент на FINANS PROTECT">
  <defs>
    <linearGradient id="evaBg" x1="8" y1="6" x2="88" y2="90" gradientUnits="userSpaceOnUse">
      <stop stop-color="#153E75"/>
      <stop offset="0.55" stop-color="#14B8A6"/>
      <stop offset="1" stop-color="#0B1F3A"/>
    </linearGradient>
    <radialGradient id="evaGlow" cx="0.32" cy="0.28" r="0.8">
      <stop stop-color="#FFFFFF" stop-opacity="0.30"/>
      <stop offset="1" stop-color="#FFFFFF" stop-opacity="0"/>
    </radialGradient>
    <linearGradient id="evaFace" x1="30" y1="34" x2="66" y2="82" gradientUnits="userSpaceOnUse">
      <stop stop-color="#FFFFFF"/>
      <stop offset="1" stop-color="#E8FBF5"/>
    </linearGradient>
  </defs>
  <circle cx="48" cy="48" r="48" fill="url(#evaBg)"/>
  <circle cx="48" cy="48" r="48" fill="url(#evaGlow)"/>
  <!-- shoulders -->
  <path d="M22 90c2.4-15.8 13.2-24 26-24s23.6 8.2 26 24" fill="url(#evaFace)"/>
  <!-- head -->
  <circle cx="48" cy="42" r="15.5" fill="url(#evaFace)"/>
  <!-- subtle hair framing for a friendly, human persona -->
  <path d="M33 40c0-9.2 6.7-16.4 15-16.4S63 30.8 63 40c0-3-3.2-4.6-6-5.4-3-0.9-6.4-1.1-9-1.1s-6 .2-9 1.1c-2.8 .8-6 2.4-6 5.4z" fill="#0B1F3A" opacity="0.10"/>
  <!-- AI spark badge -->
  <g transform="translate(70 26)">
    <circle r="11" fill="#0B1F3A"/>
    <circle r="11" fill="#14B8A6" opacity="0.18"/>
    <path d="M0 -6.5 L1.7 -1.7 L6.5 0 L1.7 1.7 L0 6.5 L-1.7 1.7 L-6.5 0 L-1.7 -1.7 Z" fill="#5EEAD4"/>
  </g>
</svg>
