<svg width="96" height="96" viewBox="0 0 96 96" fill="none" xmlns="http://www.w3.org/2000/svg" role="img" aria-label="Ева — AI асистент на FINANS PROTECT">
  <defs>
    <linearGradient id="evaBg" x1="10" y1="8" x2="86" y2="90" gradientUnits="userSpaceOnUse">
      <stop stop-color="#1B2A4A"/>
      <stop offset="1" stop-color="#0F1D36"/>
    </linearGradient>
    <linearGradient id="evaShield" x1="30" y1="20" x2="66" y2="78" gradientUnits="userSpaceOnUse">
      <stop stop-color="#2DD4BF"/>
      <stop offset="1" stop-color="#14B8A6"/>
    </linearGradient>
    <radialGradient id="evaGlow" cx="0.34" cy="0.26" r="0.85">
      <stop stop-color="#14B8A6" stop-opacity="0.28"/>
      <stop offset="1" stop-color="#14B8A6" stop-opacity="0"/>
    </radialGradient>
  </defs>
  <!-- brand navy disc -->
  <circle cx="48" cy="48" r="48" fill="url(#evaBg)"/>
  <circle cx="48" cy="48" r="48" fill="url(#evaGlow)"/>
  <!-- protection shield -->
  <path d="M48 20l17 6.2v13.2c0 11.7-7 20.2-17 24.4-10-4.2-17-12.7-17-24.4V26.2L48 20z" fill="url(#evaShield)"/>
  <path d="M48 20l17 6.2v13.2c0 11.7-7 20.2-17 24.4-10-4.2-17-12.7-17-24.4V26.2L48 20z" fill="#0F1D36" opacity="0.08"/>
  <!-- "E" monogram formed by three clean bars -->
  <g fill="#F8FEFC">
    <rect x="40.5" y="33" width="16" height="4.4" rx="2.2"/>
    <rect x="40.5" y="45.8" width="12.5" height="4.4" rx="2.2"/>
    <rect x="40.5" y="58.6" width="16" height="4.4" rx="2.2"/>
    <rect x="40.5" y="33" width="4.6" height="29.9" rx="2.3"/>
  </g>
</svg>
